<?xml version="1.0" encoding="utf-8"?>
<!-- Generator: Adobe Illustrator 22.0.1, SVG Export Plug-In . SVG Version: 6.00 Build 0)  -->
<svg version="1.1" id="Layer_1" xmlns="http://www.w3.org/2000/svg" xmlns:xlink="http://www.w3.org/1999/xlink" x="0px" y="0px"
	 viewBox="0 0 26.2 20.2" style="enable-background:new 0 0 26.2 20.2;" xml:space="preserve">
<style type="text/css">
	.st0{fill:#FFFFFF;}
</style>
<path class="st0" d="M16.9,6.5L16,4.4c-1.2,0.1-1.9,0.3-2.6-0.4c-0.7-0.7-0.5-1.4-0.5-2.6l-2.1-0.8C9.9,1.5,9.5,2.2,8.5,2.2
	c-1,0-1.4-0.6-2.2-1.5L4.2,1.6c0.1,1.2,0.3,1.9-0.4,2.6l0,0C3.2,5,2.5,4.8,1.2,4.8L0.4,6.9C1.3,7.7,2,8.1,2,9c0,1-0.6,1.4-1.5,2.2
	l0.9,2.1c1.2-0.1,1.9-0.3,2.6,0.4c0.7,0.7,0.5,1.4,0.5,2.6l2.1,0.8c0.8-0.9,1.2-1.6,2.1-1.6l0,0c1,0,1.4,0.6,2.2,1.5l2.1-0.9
	c-0.1-1.2-0.3-1.9,0.4-2.7l0,0c0.7-0.7,1.4-0.5,2.6-0.5l0.8-2.1c-0.9-0.8-1.6-1.2-1.6-2.1C15.4,7.8,16,7.4,16.9,6.5z M9.8,11.5
	c-1.4,0.6-3.1,0-3.7-1.4s0-3.1,1.4-3.7s3.1,0,3.7,1.4C11.9,9.2,11.2,10.8,9.8,11.5z M25.6,9.1l-0.4-1c-0.6,0-0.9,0.1-1.2-0.2
	c-0.3-0.3-0.3-0.7-0.2-1.2l-1-0.4c-0.4,0.4-0.6,0.7-1,0.8c-0.5,0-0.6-0.3-1-0.7l-1,0.4c0,0.6,0.1,0.9-0.2,1.2
	c-0.3,0.3-0.7,0.3-1.2,0.2l-0.4,1c0.4,0.4,0.7,0.6,0.8,1s-0.3,0.6-0.7,1l0.4,1c0.6,0,0.9-0.1,1.2,0.2c0.3,0.3,0.3,0.7,0.2,1.2l1,0.4
	c0.4-0.4,0.6-0.7,1-0.8c0.5,0,0.6,0.3,1,0.7l1-0.4c0-0.6-0.1-0.9,0.2-1.2l0,0c0.3-0.3,0.7-0.3,1.2-0.2l0.4-1c-0.4-0.4-0.7-0.6-0.8-1
	C24.9,9.7,25.2,9.5,25.6,9.1z M22.3,11.4c-0.7,0.3-1.5,0-1.7-0.7c-0.3-0.7,0-1.5,0.7-1.7c0.7-0.3,1.5,0,1.7,0.7
	C23.3,10.3,23,11.1,22.3,11.4z M19.9,15.8l-0.3-0.7c-0.4,0-0.7,0.1-0.9-0.1c-0.2-0.2-0.2-0.5-0.2-0.9l-0.7-0.3
	c-0.3,0.3-0.4,0.6-0.8,0.6c-0.3,0-0.5-0.2-0.8-0.5l-0.7,0.3c0,0.4,0.1,0.7-0.1,0.9c-0.2,0.2-0.5,0.2-0.9,0.2l-0.3,0.7
	c0.3,0.3,0.6,0.4,0.6,0.8c0,0.3-0.2,0.5-0.5,0.8l0.3,0.7c0.4,0,0.7-0.1,0.9,0.1c0.2,0.2,0.2,0.5,0.2,0.9l0.7,0.3
	c0.3-0.3,0.4-0.6,0.8-0.6s0.5,0.2,0.8,0.5l0.7-0.3c0-0.4-0.1-0.7,0.1-0.9l0,0c0.2-0.2,0.5-0.2,0.9-0.2l0.3-0.7
	c-0.3-0.3-0.6-0.4-0.6-0.8C19.3,16.2,19.6,16.1,19.9,15.8z M17.4,17.5c-0.5,0.2-1.1,0-1.3-0.5c-0.2-0.5,0-1.1,0.5-1.3
	c0.5-0.2,1.1,0,1.3,0.5C18.1,16.7,17.9,17.3,17.4,17.5z"/>
</svg>
