<?xml version="1.0" encoding="utf-8"?>
<!-- Generator: Adobe Illustrator 22.0.1, SVG Export Plug-In . SVG Version: 6.00 Build 0)  -->
<svg version="1.1" id="Layer_1" xmlns="http://www.w3.org/2000/svg" xmlns:xlink="http://www.w3.org/1999/xlink" x="0px" y="0px"
	 viewBox="0 0 24 24" style="enable-background:new 0 0 24 24;" xml:space="preserve">
<style type="text/css">
	.st0{fill:#FFFFFF;}
</style>
<path class="st0" d="M17,10.6V8.4c-1.2-0.4-1.9-0.5-2.3-1.4c-0.4-0.9,0.1-1.5,0.6-2.6l-1.6-1.6c-1.1,0.5-1.7,1-2.6,0.6
	c-0.9-0.4-1-1.1-1.4-2.3H7.4C6.9,2.2,6.8,2.9,5.9,3.3h0C5,3.7,4.4,3.2,3.3,2.7L1.7,4.3c0.5,1.1,1,1.7,0.6,2.6C1.9,7.8,1.2,7.9,0,8.4
	v2.3c1.2,0.4,1.9,0.5,2.3,1.4c0.4,0.9-0.1,1.5-0.6,2.6l1.6,1.6c1.1-0.5,1.7-1,2.6-0.6h0c0.9,0.4,1,1.1,1.4,2.3h2.3
	c0.4-1.2,0.5-1.9,1.4-2.3h0c0.9-0.4,1.5,0.1,2.6,0.6l1.6-1.6c-0.5-1.1-1-1.7-0.6-2.6C15.1,11.2,15.8,11.1,17,10.6z M8.5,12.3
	c-1.6,0-2.8-1.3-2.8-2.8s1.3-2.8,2.8-2.8s2.8,1.3,2.8,2.8S10.1,12.3,8.5,12.3z M24,16.5v-1.1c-0.5-0.2-0.9-0.3-1.1-0.7
	c-0.2-0.4,0-0.7,0.3-1.2l-0.8-0.8c-0.5,0.2-0.8,0.5-1.2,0.3s-0.5-0.5-0.7-1.1h-1.1c-0.2,0.5-0.2,0.9-0.7,1.1s-0.7,0-1.2-0.3
	l-0.8,0.8c0.2,0.5,0.5,0.8,0.3,1.2s-0.5,0.5-1.1,0.7v1.1c0.5,0.2,0.9,0.2,1.1,0.7c0.2,0.4,0,0.7-0.3,1.2l0.8,0.8
	c0.5-0.2,0.8-0.5,1.2-0.3c0.4,0.2,0.5,0.5,0.7,1.1h1.1c0.2-0.5,0.2-0.9,0.7-1.1h0c0.4-0.2,0.7,0,1.2,0.3l0.8-0.8
	c-0.2-0.5-0.5-0.8-0.3-1.2S23.5,16.7,24,16.5z M20,17.3c-0.7,0-1.3-0.6-1.3-1.3s0.6-1.3,1.3-1.3s1.3,0.6,1.3,1.3S20.7,17.3,20,17.3z
	 M16,20.4v-0.8c-0.4-0.1-0.7-0.2-0.8-0.5s0-0.5,0.2-0.9l-0.6-0.6c-0.4,0.2-0.6,0.3-0.9,0.2s-0.4-0.4-0.5-0.8h-0.8
	c-0.1,0.4-0.2,0.7-0.5,0.8c-0.3,0.1-0.5,0-0.9-0.2l-0.6,0.6c0.2,0.4,0.3,0.6,0.2,0.9s-0.4,0.4-0.8,0.5v0.8c0.4,0.1,0.7,0.2,0.8,0.5
	c0.1,0.3,0,0.5-0.2,0.9l0.6,0.6c0.4-0.2,0.6-0.3,0.9-0.2s0.4,0.4,0.5,0.8h0.8c0.1-0.4,0.2-0.7,0.5-0.8h0c0.3-0.1,0.5,0,0.9,0.2
	l0.6-0.6c-0.2-0.4-0.3-0.6-0.2-0.9S15.6,20.5,16,20.4z M13,21c-0.6,0-1-0.4-1-1s0.4-1,1-1s1,0.4,1,1S13.6,21,13,21z"/>
</svg>
