<?xml version="1.0" encoding="UTF-8"?>
<svg width="81px" height="50px" viewBox="0 0 81 50" version="1.1" xmlns="http://www.w3.org/2000/svg" xmlns:xlink="http://www.w3.org/1999/xlink">
    <!-- Generator: Sketch 51.1 (57501) - http://www.bohemiancoding.com/sketch -->
    <title>hard_hat</title>
    <desc>Created with Sketch.</desc>
    <defs></defs>
    <g id="Page-1" stroke="none" stroke-width="1" fill="none" fill-rule="evenodd">
        <g id="hard_hat" fill="#FFFFFF" fill-rule="nonzero">
            <g id="Group">
                <path d="M63.1693548,11.0943548 C62.425,8.25725806 60.7798387,7.075 59.4677419,6.44516129 C58.2379032,5.85645161 56.8322581,5.50887097 54.925,5.71290323 C54.925,5.71290323 62.1064516,26.7145161 65.3080645,28.4145161 C69.6096774,30.5653226 63.1693548,11.0943548 63.1693548,11.0943548 Z" id="Shape"></path>
                <path d="M77.1701613,46.0403226 L77.1298387,41.8798387 L70.125,41.6419355 L70.6733871,46.0967742 L66.9120968,46.1443548 L66.4451613,40.3233871 L75.6959677,40.5290323 C75.2040323,28.9774194 71.9717742,17.2830645 64.8975806,12.2782258 C64.8975806,12.2782258 71.4983871,32.5290323 65.408871,30.4475806 C61.2193548,28.7782258 53.0475806,5.01209677 53.0475806,5.01209677 C51.0766129,4.44758065 48.9370968,4.22016129 46.9919355,3.74596774 C46.9919355,3.74596774 47.525,25.9645161 40.0217742,25.9645161 C32.5185484,25.9645161 33.4048387,3.78145161 33.4048387,3.78145161 C31.5274194,4.15403226 28.5822581,4.95403226 26.6032258,5.63870968 C26.6032258,5.63870968 19.0137097,27.9524194 15.4532258,30.333871 C9.4483871,34.6298387 15.0806452,13.2 15.0806452,13.2 C9.04516129,20.2016129 5.91209677,30.3653226 5.37741935,41.0072581 L15.6048387,41.133871 L15.05,46.691129 L11.7475806,46.5927419 L12.6169355,42.5056452 L3.61612903,42.4032258 L3.65,46.9620968 L-1.42117221e-15,46.8983871 C-0.0701612903,50.8846774 11.2508065,48.9193548 39.7387097,49.4233871 C71.2887097,49.9806452 80.6016129,48.5508065 80.6451613,46.1016129 L77.1701613,46.0403226 Z" id="Shape"></path>
                <path d="M20.3895161,6.94919355 C17.8120968,8.15241935 16.7612903,12.4330645 16.7612903,12.4330645 C16.7612903,12.4330645 11.3709677,31.5677419 15.2879032,28.8653226 C18.6733871,25.6959677 24.9120968,6.32016129 24.9120968,6.32016129 C24.9120968,6.32016129 23.2024194,5.63548387 20.3895161,6.94919355 Z" id="Shape"></path>
                <path d="M42,24.2725806 C41.9612903,24.3072581 41.9298387,24.3435484 41.9008065,24.3814516 C41.9846774,24.3080645 42.0306452,24.2637097 42,24.2725806 Z" id="Shape"></path>
                <path d="M45.1580645,3.075 C45.1580645,3.075 43.0612903,0.508870968 40.1048387,0.457258065 C37.1379032,0.40483871 34.9685484,3.20403226 34.9685484,3.20403226 C34.9685484,3.20403226 34.2145161,24.2717742 40.0669355,24.2717742 C45.9193548,24.2717742 45.1580645,3.075 45.1580645,3.075 Z" id="Shape"></path>
            </g>
        </g>
    </g>
</svg>