<?xml version="1.0" encoding="UTF-8"?>
<svg width="46px" height="50px" viewBox="0 0 46 50" version="1.1" xmlns="http://www.w3.org/2000/svg" xmlns:xlink="http://www.w3.org/1999/xlink">
    <!-- Generator: Sketch 51.1 (57501) - http://www.bohemiancoding.com/sketch -->
    <title>Group</title>
    <desc>Created with Sketch.</desc>
    <defs></defs>
    <g id="Page-1" stroke="none" stroke-width="1" fill="none" fill-rule="evenodd">
        <g id="officeworker" fill="#FFFFFF" fill-rule="nonzero">
            <g id="Group">
                <path d="M33.975,12.6586957 C37.4097826,12.6586957 40.1929348,9.875 40.1929348,6.43695652 C40.1929348,3.00054348 37.4097826,0.216847826 33.975,0.216847826 C30.538587,0.216847826 27.7532609,3.00054348 27.7532609,6.43695652 C27.7527174,9.87445652 30.5380435,12.6586957 33.975,12.6586957 Z" id="Shape"></path>
                <path d="M11.4130435,27.173913 L8.15217391,27.173913 L8.15217391,25.5434783 L8.25543478,25.5434783 C8.625,25.5434783 8.94565217,25.2690217 8.92336957,24.8994565 L7.77173913,4.60326087 C7.75,4.22826087 7.44076087,3.95108696 7.07065217,3.97282609 L6.60380435,3.99456522 C6.23369565,4.01630435 5.95706522,4.33695652 5.97880435,4.70652174 L6.00054348,5.04891304 L5.5875,5.07065217 L6.70706522,24.6086957 L7.1201087,24.5815217 L7.16358696,25.0652174 C7.17391304,25.3369565 7.60869565,25.5597826 7.60869565,25.6521739 L7.60869565,27.173913 L4.89130435,27.173913 L4.89130435,27.7173913 L11.4130435,27.7173913 L11.4130435,27.173913 Z" id="Shape"></path>
                <path d="M42.4076087,28.5733696 L40.2195652,14.6956522 C40.2195652,13.9559783 39.6320652,13.3565217 38.8934783,13.3565217 L32.1711957,14.6972826 C31.4298913,14.6972826 30.8315217,15.2967391 30.8315217,16.0347826 L31.0663043,18.2092391 L29.1043478,20.0413043 L21.9271739,21.7657609 C20.6315217,22.0771739 19.8728261,23.5652174 20.238587,25.0858696 L20.3130435,25.3940217 C20.6793478,26.9157609 22.0271739,27.8961957 23.3266304,27.5847826 L29.2423913,26.1652174 L29.2472826,26.1608696 L31.7298913,24.3923913 L32.2565217,30.273913 L25.1527174,31.5032609 L25.1538043,28.8043478 C25.1527174,28.5326087 24.813587,28.2608696 24.5342391,28.2608696 L0.876086957,28.2608696 C0.0423913043,28.2608696 0,28.8130435 0,28.8130435 L0,50 L1.08695652,50 L1.08695652,30.4347826 L23.9130435,30.4347826 L23.9130435,31.6853261 L20.6521739,32.3309783 L20.6521739,32.3972826 L15.3809783,44.9652174 C14.5478261,46.5266304 14.9945652,48.386413 16.376087,49.1228261 L16.6505435,49.2728261 C18.0326087,50.0086957 19.8972826,49.3391304 20.726087,47.7804348 L23.9130435,39.0396739 L23.9130435,50 L25,50 L25,37.7826087 L38.9478261,36.1673913 C41.0081522,36.0994565 43.4505435,34.5434783 42.4076087,28.5733696 Z" id="Shape"></path>
                <polygon id="Shape" points="45.6521739 32.6086957 45.6521739 16.3043478 44.0217391 16.3043478 44.0217391 32.6086957 44.4722826 32.6086957 43.9744565 36.3402174 28.151087 37.8461957 28.2875 39.4092391 28.8043478 39.3277174 28.8043478 50 29.8913043 50 29.8913043 39.2532609 43.4782609 37.8788043 43.4782609 50 44.5652174 50 44.5652174 37.8021739 44.8880435 37.7603261 44.6684783 36.1744565 44.3945652 36.3027174 44.8608696 32.6086957"></polygon>
                <polygon id="Shape" points="14.813587 26.9809783 20.7353261 28.1652174 20.8418478 27.6320652 14.761413 26.4157609 12.761413 27.2157609 12.963587 27.7206522"></polygon>
            </g>
        </g>
    </g>
</svg>