<?xml version="1.0" encoding="UTF-8"?>
<svg width="41px" height="50px" viewBox="0 0 41 50" version="1.1" xmlns="http://www.w3.org/2000/svg" xmlns:xlink="http://www.w3.org/1999/xlink">
    <!-- Generator: Sketch 51.1 (57501) - http://www.bohemiancoding.com/sketch -->
    <title>people</title>
    <desc>Created with Sketch.</desc>
    <defs></defs>
    <g id="Page-1" stroke="none" stroke-width="1" fill="none" fill-rule="evenodd">
        <g id="people">
            <path d="M15.2163043,30.4347826 C15.0445652,30.4347826 14.8777174,30.4141304 14.7146739,30.3815217 C14.8777174,30.4152174 15.0445652,30.4347826 15.2163043,30.4347826 Z" id="Shape"></path>
            <path d="M13.9369565,30.0858696 C13.9315217,30.0826087 13.9266304,30.0798913 13.9217391,30.0771739 C13.9266304,30.0804348 13.9315217,30.0831522 13.9369565,30.0858696 Z" id="Shape"></path>
            <path d="M14.6086957,30.3570652 C14.5005435,30.3309783 14.3972826,30.2945652 14.2945652,30.2554348 C14.3972826,30.2961957 14.5016304,30.3304348 14.6086957,30.3570652 Z" id="Shape"></path>
            <path d="M11.4130435,27.4923913 L11.4130435,27.4315217 L11.4244565,27.4331522 L12.9554348,13.9293478 C12.9668478,13.2798913 13.1423913,12.6945652 13.4418478,12.1804348 C13.1190217,12.0320652 12.7619565,11.9565217 12.3826087,11.9565217 L4.39728261,11.9565217 C2.98532609,11.9565217 1.84076087,13.0880435 1.84076087,14.5005435 L0.393478261,27.351087 C0.393478261,28.7619565 1.5375,29.8918478 2.94945652,29.8918478 L3.74673913,29.8918478 L5.71304348,46.3891304 C5.71304348,47.2478261 6.41086957,47.8266304 7.27119565,47.8266304 L9.50869565,47.8266304 C10.3690217,47.8266304 11.0673913,47.2565217 11.0673913,46.3978261 L12.9592391,30.4766304 C12.023913,29.7847826 11.4130435,28.7413043 11.4130435,27.4923913 Z" id="Shape" fill="#FFFFFF" fill-rule="nonzero"></path>
            <circle id="Oval" fill="#FFFFFF" fill-rule="nonzero" cx="8.39021739" cy="6.1701087" r="4.28478261"></circle>
            <path d="M39.5695652,14.5005435 C39.5695652,13.0880435 38.4255435,11.9565217 37.0130435,11.9565217 L29.0266304,11.9565217 C28.8086957,11.9565217 28.6,11.9798913 28.3978261,12.0315217 C28.75,12.5782609 28.961413,13.2211957 28.9744565,13.9353261 L30.4766304,27.3744565 L30.4347826,27.4315217 L30.4347826,27.4923913 C30.4347826,28.9298913 29.6532609,30.1826087 28.4847826,30.8271739 L30.3429348,46.3972826 C30.3429348,47.2559783 31.0402174,47.826087 31.9005435,47.826087 L34.1391304,47.826087 C34.9994565,47.826087 35.6967391,47.2478261 35.6967391,46.388587 L37.6646739,29.8913043 L38.461413,29.8913043 C39.873913,29.8913043 41.0179348,28.761413 41.0179348,27.3505435 L39.5695652,14.5005435 Z" id="Shape" fill="#FFFFFF" fill-rule="nonzero"></path>
            <circle id="Oval" fill="#FFFFFF" fill-rule="nonzero" cx="33.0206522" cy="6.1701087" r="4.28478261"></circle>
            <path d="M29.4445652,27.6728261 L27.9119565,13.9951087 C27.9119565,12.5 26.7,11.4130435 25.2054348,11.4130435 L16.748913,11.4130435 C15.2543478,11.4130435 14.0429348,12.5592391 14.0429348,14.0543478 L12.5103261,27.6108696 C12.5103261,28.6358696 13.0809783,29.5836957 13.9222826,30.0777174 C13.9271739,30.0804348 13.9326087,30.0831522 13.9375,30.086413 C14.0516304,30.1527174 14.1722826,30.2081522 14.2956522,30.2565217 C14.3978261,30.2951087 14.5016304,30.3320652 14.6097826,30.3581522 C14.6445652,30.3673913 14.6798913,30.3755435 14.7152174,30.3826087 C14.8782609,30.4152174 15.0451087,30.4358696 15.2168478,30.4358696 L16.0608696,30.4358696 L18.1423913,47.9195652 C18.1423913,48.8288043 18.8815217,49.4576087 19.7923913,49.4576087 L22.1619565,49.4576087 C23.0728261,49.4576087 23.8119565,48.8288043 23.8119565,47.9195652 L25.8945652,30.4347826 L26.738587,30.4347826 C28.2331522,30.4347826 29.4445652,29.1663043 29.4445652,27.6728261 Z" id="Shape" fill="#FFFFFF" fill-rule="nonzero"></path>
            <circle id="Oval" fill="#FFFFFF" fill-rule="nonzero" cx="20.9777174" cy="5.06358696" r="4.5375"></circle>
        </g>
    </g>
</svg>