<?xml version="1.0" encoding="UTF-8"?>
<svg width="22px" height="22px" viewBox="0 0 22 22" version="1.1" xmlns="http://www.w3.org/2000/svg" xmlns:xlink="http://www.w3.org/1999/xlink">
    <!-- Generator: Sketch 51.1 (57501) - http://www.bohemiancoding.com/sketch -->
    <title>linkedin-logo</title>
    <desc>Created with Sketch.</desc>
    <defs></defs>
    <g id="Page-1" stroke="none" stroke-width="1" fill="none" fill-rule="evenodd">
        <g id="linkedin-logo" fill="#FFFFFF" fill-rule="nonzero">
            <path d="M19.8,0 L2.2,0 C0.99,0 0,0.99 0,2.2 L0,19.8 C0,21.01 0.99,22 2.2,22 L19.8,22 C21.01,22 22,21.01 22,19.8 L22,2.2 C22,0.99 21.01,0 19.8,0 Z M6.6,18.7 L3.3,18.7 L3.3,8.8 L6.6,8.8 L6.6,18.7 Z M4.95,6.93 C3.85,6.93 2.97,6.05 2.97,4.95 C2.97,3.85 3.85,2.97 4.95,2.97 C6.05,2.97 6.93,3.85 6.93,4.95 C6.93,6.05 6.05,6.93 4.95,6.93 Z M18.7,18.7 L15.4,18.7 L15.4,12.87 C15.4,11.9900431 14.63,11.22 13.75,11.22 C12.87,11.22 12.1,11.9900431 12.1,12.87 L12.1,18.7 L8.8,18.7 L8.8,8.8 L12.1,8.8 L12.1,10.12 C12.65,9.24 13.86,8.58 14.85,8.58 C16.94,8.58 18.7,10.34 18.7,12.43 L18.7,18.7 Z" id="Shape"></path>
        </g>
    </g>
</svg>