<?xml version="1.0" encoding="UTF-8"?>
<svg width="244px" height="70px" viewBox="0 0 600 172" version="1.1" xmlns="http://www.w3.org/2000/svg" xmlns:xlink="http://www.w3.org/1999/xlink">
    <!-- Generator: Sketch 51.1 (57501) - http://www.bohemiancoding.com/sketch -->
    <title>HBKLogo Tag_CMYK_EPS@2x</title>
    <desc>Created with Sketch.</desc>
    <defs></defs>
    <g id="HBKLogo-Tag_CMYK_EPS" stroke="none" stroke-width="1" fill="none" fill-rule="evenodd">
        <path d="M259.528,171.201 C259.041,171.201 258.664,170.805 258.664,170.321 L258.664,0.975 C258.664,0.489 259.041,0.093 259.528,0.093 C260.013,0.093 260.407,0.489 260.407,0.975 L260.407,170.321 C260.407,170.805 260.013,171.201 259.528,171.201" id="Fill-1" fill="#ADAFAA"></path>
        <path d="M297.952,31.819 C297.952,20.939 295.403,18.978 287.691,16.857 L284.069,15.775 C282.765,15.417 282.561,15.25 282.561,14.697 L282.561,13.098 C282.561,12.414 283.179,12.214 285.112,11.301 L307.361,1.532 C309.071,0.8 310.568,0.093 312.261,0.093 C313.577,0.093 314.426,1.532 313.995,4.536 C313.577,7.568 313.348,43.747 313.348,52.664 L313.348,64.073 L314.426,64.073 C321.912,56.588 334.306,52.467 343.701,52.467 C352.72,52.467 358.927,54.792 364.916,59.628 C374.519,67.111 374.1,76.195 374.1,85.831 L374.1,95.997 C374.1,105.959 374.519,117.01 374.519,120.407 C374.519,122.526 377.952,123.057 382.461,123.057 L386.087,123.057 C387.787,123.057 388.441,123.408 388.441,124.692 L388.441,127.328 C388.441,128.77 387.985,129.489 386.74,129.489 C385.206,129.489 378.373,128.967 366.188,128.967 C355.692,128.967 347.981,129.489 346.095,129.489 C344.554,129.489 344.161,128.967 344.161,127.527 L344.161,124.493 C344.161,123.583 344.357,123.057 345.646,123.057 L350.569,123.057 C354.189,123.057 358.48,122.724 358.698,119.691 C358.927,117.202 358.698,107.725 358.698,102.032 L358.698,87.599 C358.698,77.63 357.844,70.506 351.612,65.708 C347.35,62.308 342.855,60.674 337.531,60.674 C331.319,60.674 323.607,62.468 317.633,68.191 C315.699,70.15 313.348,73.677 313.348,76.915 L313.348,115.764 C313.348,121.492 313.995,123.057 318.05,123.057 L324.46,123.057 C325.961,123.057 326.844,123.408 326.844,124.493 L326.844,127.527 C326.844,128.77 326.384,129.489 325.111,129.489 C323.41,129.489 314.656,128.967 304.811,128.967 C294.099,128.967 285.957,129.489 284.069,129.489 C283.179,129.489 282.561,128.967 282.561,127.696 L282.561,124.493 C282.561,123.252 283.414,123.057 285.765,123.057 L290.239,123.057 C293.671,123.057 296.876,122.37 297.303,120.209 C297.952,116.811 297.952,97.219 297.952,85.64 L297.952,31.819" id="Fill-2" fill="#142439"></path>
        <path d="M417.637,90.636 C417.637,105.426 418.256,110.806 420.843,116.487 C422.996,120.742 431.946,125.371 441.17,125.371 C453.978,125.371 469.828,118.087 469.828,94.719 C469.828,77.44 458.911,61.028 437.971,61.028 C430.057,61.028 422.346,63.351 417.637,67.44 L417.637,90.636 Z M402.248,32.867 C402.248,20.939 399.897,18.458 392.182,16.334 L390.058,15.775 C387.673,15.25 387.276,14.896 387.276,14.372 L387.276,12.929 C387.276,12.414 387.673,12.052 388.976,11.494 C395.186,9.176 406.298,4.536 411.66,1.69 C413.142,0.8 414.845,0.093 416.132,0.093 C417.637,0.093 418.057,0.974 417.867,3.094 C417.637,4.536 417.637,24.894 417.637,40.744 L417.637,61.429 C424.478,55.874 436.669,52.467 447.168,52.467 C465.966,52.467 486.297,65.15 486.297,90.636 C486.297,111.487 466.162,131.089 441.789,131.089 C429.819,131.089 421.494,128.964 416.556,126.455 L408.025,130.388 C407.181,130.932 406.525,131.089 405.219,130.932 L402.643,130.388 C401.792,130.211 401.595,129.821 401.792,128.964 C402.248,126.455 402.248,111.67 402.248,98.64 L402.248,32.867 Z" id="Fill-3" fill="#142439"></path>
        <path d="M508.435,26.623 C508.435,19.336 507.817,16.337 497.352,13.975 C494.98,13.454 494.317,13.285 494.317,12.743 L494.317,11.133 C494.317,10.446 494.98,10.09 497.101,9.337 L518.927,1.532 C520.887,0.8 522.36,0.093 523.637,0.093 C524.91,0.093 525.144,0.974 524.91,3.094 C523.863,11.657 523.863,37.901 523.863,59.267 L523.863,87.437 C526.643,87.437 531.969,86.884 534.126,85.478 C538.186,83.156 555.07,67.63 556.806,65.474 C558.076,63.551 558.076,62.114 556.806,61.429 C555.07,60.349 552.52,60.349 551.227,60.349 C549.745,60.349 549.526,59.794 549.526,58.711 L549.526,55.349 C549.526,54.432 549.943,53.909 551.023,53.909 C552.334,53.909 560.007,54.432 570.925,54.432 C581.38,54.432 586.739,53.909 588.24,53.909 C589.087,53.909 589.518,54.432 589.518,55.704 L589.518,58.907 C589.518,59.993 589.285,60.349 587.815,60.349 L586.315,60.349 C582.028,60.349 575.854,62.114 571.576,64.436 C568.54,65.874 550.593,79.762 543.306,85.64 C547.59,89.193 583.533,119.137 587.155,120.571 C591.021,122.176 595.952,123.057 598.296,123.057 C599.58,123.057 600,123.408 600,124.692 L600,127.851 C600,128.967 599.58,129.489 598.073,129.489 C596.346,129.489 590.361,128.967 580.329,128.967 C567.686,128.967 558.727,129.489 556.993,129.489 C555.956,129.489 555.493,128.967 555.493,127.696 L555.493,124.85 C555.493,123.967 555.956,123.408 557.658,123.408 L559.155,123.408 C560.873,123.408 562.131,122.176 561.48,120.571 C560.873,119.137 536.477,97.564 533.079,94.921 C530.691,93.281 526.643,92.956 523.863,92.956 L523.863,100.804 C523.863,107.042 523.863,113.098 524.06,119.32 C524.288,121.847 525.366,123.057 528.346,123.057 L534.543,123.057 C536.059,123.057 536.477,123.408 536.477,124.493 L536.477,127.527 C536.477,128.967 536.059,129.489 534.776,129.489 C533.473,129.489 526.41,128.967 515.724,128.967 C504.161,128.967 496.703,129.489 495.204,129.489 C494.55,129.489 494.128,128.77 494.128,127.696 L494.128,124.692 C494.128,123.408 494.778,123.057 496.253,123.057 L504.161,123.057 C506.97,123.057 508.05,121.086 508.05,118.774 C508.247,110.96 508.435,101.325 508.435,85.64 L508.435,26.623" id="Fill-4" fill="#142439"></path>
        <path d="M292.132,157.271 C292.43,157.271 296.501,157.119 296.958,157.068 C298.085,156.857 298.429,156.565 298.972,155.419 C299.139,155.06 299.411,154.335 299.565,153.616 C299.599,153.443 299.713,153.362 299.861,153.362 L300.789,153.382 C300.993,153.382 301.045,153.536 300.985,153.691 C300.772,154.335 300.276,157.368 300.17,157.88 C299.978,159.178 299.817,160.976 299.758,161.743 C299.728,161.914 299.642,162.014 299.482,162.043 L298.655,162.161 C298.439,162.192 298.391,162.063 298.395,161.803 C298.398,161.335 298.301,160.483 298.264,160.072 C298.162,159.31 297.848,158.736 296.868,158.667 C295.132,158.45 292.528,158.45 291.931,158.45 L291.561,160.758 C291.204,162.747 290.712,166.346 290.584,167.068 C290.304,168.979 291.134,169.733 292.249,169.963 C292.999,170.103 294.053,170.204 294.996,170.204 C295.645,170.204 297.549,170.164 298.331,170.103 C299.004,170.024 300.724,169.601 301.846,168.81 C302.355,168.439 304.921,165.78 305.572,164.934 C305.708,164.758 305.853,164.614 306.08,164.698 L306.589,165.047 C306.788,165.128 306.776,165.254 306.584,165.553 L303.684,170.993 C303.521,171.316 303.223,171.524 302.776,171.524 C302.597,171.524 301.761,171.501 299.516,171.466 C297.255,171.466 293.595,171.435 287.699,171.435 C286.3,171.435 285.238,171.466 284.498,171.466 C283.687,171.501 283.194,171.524 282.868,171.524 C282.631,171.524 282.517,171.466 282.575,171.283 L282.74,170.283 C282.759,170.133 282.878,170.103 283.14,170.103 L284.646,170.103 C286.379,170.103 286.568,169.845 286.811,168.467 L288.848,156.106 C289.383,153.031 290.033,148.402 290.049,148.032 C290.129,146.84 289.767,146.59 288.402,146.59 L287.017,146.59 C286.826,146.59 286.719,146.552 286.786,146.344 L286.954,145.336 C286.967,145.227 287.057,145.144 287.24,145.144 C288.084,145.144 289.384,145.254 291.858,145.254 L293.51,145.254 C297.255,145.254 300.99,145.227 304.744,145.227 C305.339,145.227 306.073,145.144 306.246,145.144 C306.425,145.144 306.508,145.227 306.53,145.336 L307.445,151.293 C307.457,151.443 307.442,151.559 307.289,151.614 L306.686,151.919 C306.557,152.002 306.411,151.893 306.405,151.782 C306.348,151.641 304.128,148.138 303.327,147.586 C302.615,147.083 301.614,146.637 300.617,146.59 L293.913,146.439 L292.132,157.271" id="Fill-5" fill="#152338"></path>
        <path d="M318.526,150.052 C318.879,147.878 317.965,146.666 316.578,146.637 L315.072,146.59 C314.851,146.59 314.84,146.439 314.885,146.344 L315.047,145.372 C315.072,145.227 315.093,145.144 315.279,145.144 C315.492,145.144 315.782,145.188 316.36,145.188 C316.916,145.227 317.718,145.254 319.007,145.254 C320.302,145.254 321.078,145.188 321.564,145.188 C322.042,145.188 322.308,145.336 322.58,145.664 L328.829,155.709 C329.152,156.247 334.254,163.894 334.974,165.076 L335.128,165.076 L335.842,160.684 C336.401,157.388 336.661,155.563 336.882,153.735 C337.087,152.29 337.519,148.677 337.399,148.032 C337.242,147.109 336.598,146.59 335.541,146.59 L334.35,146.59 C334.193,146.59 334.111,146.515 334.179,146.344 L334.331,145.372 C334.35,145.227 334.407,145.144 334.562,145.144 C335.109,145.144 336.281,145.254 338.702,145.254 C340.985,145.254 341.9,145.144 342.378,145.144 C342.647,145.144 342.663,145.254 342.646,145.404 L342.499,146.344 C342.48,146.487 342.37,146.59 342.219,146.59 L341.2,146.59 C340.179,146.59 339.701,147.236 339.403,148.611 C338.844,151.121 338.234,154.764 337.836,157.147 L335.538,170.993 C335.444,171.501 335.36,171.865 335.206,171.865 C334.768,171.865 334.5,171.435 334.384,171.283 L330.739,165.576 C328.616,162.363 326.425,158.991 326.25,158.736 C325.909,158.383 320.358,149.842 320.184,149.549 L319.97,149.549 L318.602,157.732 C318.023,161.192 317.348,167.209 317.28,167.969 C317.208,169.412 317.307,170.103 318.315,170.103 L319.456,170.103 C319.735,170.103 319.738,170.204 319.721,170.428 L319.574,171.223 C319.549,171.466 319.473,171.524 319.242,171.524 C318.844,171.524 316.582,171.435 315.564,171.435 C314.786,171.435 312.174,171.524 311.777,171.524 C311.626,171.524 311.605,171.466 311.628,171.283 L311.788,170.316 C311.809,170.204 311.87,170.103 312.053,170.103 L313.342,170.103 C314.448,170.103 314.925,169.674 315.403,167.838 C315.623,167.138 316.379,162.922 317.486,156.355 L318.526,150.052" id="Fill-6" fill="#152338"></path>
        <path d="M366.976,163.245 C367.177,161.914 366.836,161.564 365.697,161.564 L364.118,161.564 C363.927,161.564 363.892,161.481 363.901,161.335 L364.063,160.427 C364.079,160.192 364.128,160.114 364.341,160.114 C364.848,160.114 366.534,160.22 369.114,160.22 C371.802,160.22 373.053,160.114 373.548,160.114 C373.835,160.114 373.848,160.22 373.828,160.36 L373.677,161.265 C373.657,161.415 373.609,161.564 373.372,161.564 L371.906,161.564 C371.213,161.564 370.695,161.803 370.481,162.951 L369.692,167.838 C369.592,168.362 369.694,168.73 369.643,169.016 C369.584,169.307 369.344,169.452 368.923,169.601 C365.643,171.142 362.467,172 358.257,172 C354.91,172 350.482,170.746 348.389,167.752 C346.509,165.225 345.841,162.063 346.574,157.592 C347.141,154.223 349.198,150.642 352.394,148.228 C355.479,145.976 359.067,144.696 363.6,144.696 C366.836,144.696 369.552,145.896 370.655,146.84 C371.031,147.204 371.288,147.109 371.533,146.807 L372.224,146.146 C372.395,145.988 372.585,145.823 372.798,145.823 C373.064,145.823 373.101,145.988 373.066,146.261 L372.028,153.323 C371.957,153.505 371.926,153.652 371.772,153.652 L371.071,153.735 C370.93,153.735 370.849,153.616 370.843,153.445 C370.706,152.38 370.336,150.642 369.284,149.08 C368.395,147.696 366.305,146.048 362.931,146.048 C360.326,146.048 357.872,146.666 355.232,149.036 C352.822,151.141 351.048,154.195 350.485,157.546 C349.765,161.887 350.367,165.694 352.348,167.869 C353.951,169.674 356.116,170.498 358.57,170.498 C361.59,170.498 363.517,169.993 364.966,169.261 C365.927,168.73 366.21,167.897 366.528,165.987 L366.976,163.245" id="Fill-7" fill="#152338"></path>
        <path d="M385.2,155.939 C385.348,155.06 386.311,148.402 386.383,147.847 C386.433,146.956 386.129,146.59 384.696,146.59 L382.513,146.59 C382.338,146.59 382.212,146.515 382.231,146.377 L382.401,145.372 C382.451,145.227 382.572,145.144 382.725,145.144 C383.171,145.144 385.084,145.254 388.583,145.254 C391.935,145.254 393.175,145.144 393.688,145.144 C393.904,145.144 393.935,145.254 393.932,145.404 L393.771,146.344 C393.752,146.515 393.615,146.59 393.412,146.59 L391.644,146.59 C390.882,146.59 390.274,146.874 390.155,147.641 C390.08,147.989 388.626,156.148 388.562,156.58 L388.097,159.453 C388.005,159.823 386.704,168.362 386.663,168.761 C386.442,169.911 386.997,170.103 388.185,170.103 L389.759,170.103 C389.918,170.103 390.046,170.164 390.015,170.355 L389.859,171.316 C389.835,171.466 389.705,171.524 389.466,171.524 C389.012,171.524 387.529,171.435 384.247,171.435 C380.65,171.435 379.012,171.524 378.603,171.524 C378.413,171.524 378.317,171.466 378.336,171.316 L378.519,170.316 C378.533,170.164 378.672,170.103 378.843,170.103 L380.941,170.103 C381.725,170.103 382.519,169.993 382.83,169.014 C383.014,168.467 384.433,160.483 384.777,158.531 L385.2,155.939" id="Fill-8" fill="#152338"></path>
        <path d="M404.353,150.052 C404.695,147.878 403.771,146.666 402.447,146.637 L400.878,146.59 C400.701,146.59 400.672,146.439 400.707,146.344 L400.857,145.372 C400.878,145.227 400.918,145.144 401.139,145.144 C401.319,145.144 401.613,145.188 402.174,145.188 C402.748,145.227 403.548,145.254 404.839,145.254 C406.122,145.254 406.945,145.188 407.389,145.188 C407.868,145.188 408.142,145.336 408.391,145.664 L414.654,155.709 C414.976,156.247 420.082,163.894 420.788,165.076 L420.933,165.076 L421.671,160.684 C422.207,157.388 422.492,155.563 422.695,153.735 C422.918,152.29 423.327,148.677 423.208,148.032 C423.057,147.109 422.404,146.59 421.369,146.59 L420.158,146.59 C420.009,146.59 419.944,146.515 419.981,146.344 L420.132,145.372 C420.158,145.227 420.24,145.144 420.384,145.144 C420.918,145.144 422.1,145.254 424.526,145.254 C426.806,145.254 427.718,145.144 428.196,145.144 C428.469,145.144 428.48,145.254 428.469,145.404 L428.306,146.344 C428.297,146.487 428.186,146.59 428.034,146.59 L427.016,146.59 C426.007,146.59 425.534,147.236 425.235,148.611 C424.658,151.121 424.062,154.764 423.644,157.147 L421.365,170.993 C421.282,171.501 421.186,171.865 421.038,171.865 C420.586,171.865 420.306,171.435 420.22,171.283 L416.566,165.576 C414.441,162.363 412.244,158.991 412.074,158.736 C411.733,158.383 406.203,149.842 406,149.549 L405.803,149.549 L404.409,157.732 C403.846,161.192 403.172,167.209 403.101,167.969 C403.04,169.412 403.119,170.103 404.136,170.103 L405.279,170.103 C405.542,170.103 405.56,170.204 405.527,170.428 L405.398,171.223 C405.359,171.466 405.299,171.524 405.046,171.524 C404.676,171.524 402.449,171.435 401.422,171.435 C400.607,171.435 397.978,171.524 397.608,171.524 C397.463,171.524 397.445,171.466 397.466,171.283 L397.618,170.316 C397.647,170.204 397.7,170.103 397.886,170.103 L399.172,170.103 C400.277,170.103 400.755,169.674 401.233,167.838 C401.448,167.138 402.206,162.922 403.31,156.355 L404.353,150.052" id="Fill-9" fill="#152338"></path>
        <path d="M440.337,157.271 C440.635,157.271 444.682,157.119 445.153,157.068 C446.285,156.857 446.612,156.565 447.155,155.419 C447.32,155.06 447.592,154.335 447.746,153.616 C447.813,153.443 447.9,153.362 448.06,153.362 L449.018,153.382 C449.19,153.382 449.262,153.536 449.18,153.691 C448.982,154.335 448.459,157.368 448.382,157.88 C448.157,159.178 448.022,160.976 447.98,161.743 C447.913,161.914 447.85,162.014 447.703,162.043 L446.844,162.161 C446.658,162.192 446.591,162.063 446.595,161.803 C446.597,161.335 446.528,160.483 446.45,160.072 C446.379,159.31 446.03,158.736 445.096,158.667 C443.348,158.45 440.741,158.45 440.141,158.45 L439.75,160.758 C439.425,162.747 438.899,166.346 438.763,167.068 C438.493,168.979 439.319,169.733 440.463,169.963 C441.189,170.103 442.259,170.204 443.216,170.204 C443.847,170.204 445.727,170.164 446.551,170.103 C447.187,170.024 448.918,169.601 450.042,168.81 C450.564,168.439 453.101,165.78 453.783,164.934 C453.93,164.758 454.064,164.614 454.261,164.698 L454.81,165.047 C454.974,165.128 454.955,165.254 454.806,165.553 L451.913,170.993 C451.742,171.316 451.436,171.524 450.965,171.524 C450.781,171.524 449.956,171.501 447.722,171.466 C445.442,171.466 441.792,171.435 435.925,171.435 C434.521,171.435 433.451,171.466 432.683,171.466 C431.895,171.501 431.389,171.524 431.046,171.524 C430.859,171.524 430.727,171.466 430.757,171.283 L430.92,170.283 C430.939,170.133 431.058,170.103 431.34,170.103 L432.826,170.103 C434.566,170.103 434.782,169.845 434.999,168.467 L437.047,156.106 C437.564,153.031 438.259,148.402 438.272,148.032 C438.318,146.84 437.984,146.59 436.581,146.59 L435.226,146.59 C435.046,146.59 434.946,146.552 434.975,146.344 L435.131,145.336 C435.146,145.227 435.243,145.144 435.42,145.144 C436.265,145.144 437.566,145.254 440.047,145.254 L441.727,145.254 C445.444,145.254 449.187,145.227 452.927,145.227 C453.52,145.227 454.256,145.144 454.448,145.144 C454.636,145.144 454.695,145.227 454.711,145.336 L455.667,151.293 C455.678,151.443 455.661,151.559 455.501,151.614 L454.865,151.919 C454.736,152.002 454.635,151.893 454.586,151.782 C454.536,151.641 452.34,148.138 451.519,147.586 C450.795,147.083 449.835,146.637 448.832,146.59 L442.112,146.439 L440.337,157.271" id="Fill-10" fill="#152338"></path>
        <path d="M469.281,157.271 C469.586,157.271 473.641,157.119 474.103,157.068 C475.234,156.857 475.573,156.565 476.121,155.419 C476.283,155.06 476.557,154.335 476.713,153.616 C476.736,153.443 476.861,153.362 477.013,153.362 L477.966,153.382 C478.147,153.382 478.195,153.536 478.14,153.691 C477.918,154.335 477.422,157.368 477.31,157.88 C477.118,159.178 476.97,160.976 476.896,161.743 C476.87,161.914 476.801,162.014 476.635,162.043 L475.809,162.161 C475.582,162.192 475.535,162.063 475.539,161.803 C475.543,161.335 475.454,160.483 475.405,160.072 C475.308,159.31 474.995,158.736 474.054,158.667 C472.303,158.45 469.701,158.45 469.076,158.45 L468.711,160.758 C468.36,162.747 467.849,166.346 467.718,167.068 C467.45,168.979 468.277,169.733 469.411,169.963 C470.142,170.103 471.2,170.204 472.157,170.204 C472.793,170.204 474.693,170.164 475.51,170.103 C476.148,170.024 477.875,169.601 479.002,168.81 C479.501,168.439 482.065,165.78 482.715,164.934 C482.865,164.758 482.997,164.614 483.222,164.698 L483.774,165.047 C483.936,165.128 483.918,165.254 483.768,165.553 L480.861,170.993 C480.663,171.316 480.365,171.524 479.932,171.524 C479.739,171.524 478.907,171.501 476.671,171.466 C474.397,171.466 470.749,171.435 464.851,171.435 C463.475,171.435 462.383,171.466 461.64,171.466 C460.86,171.501 460.344,171.524 460.009,171.524 C459.778,171.524 459.656,171.466 459.718,171.283 L459.883,170.283 C459.904,170.133 460.022,170.103 460.29,170.103 L461.783,170.103 C463.523,170.103 463.712,169.845 463.954,168.467 L466.004,156.106 C466.518,153.031 467.187,148.402 467.239,148.032 C467.271,146.84 466.952,146.59 465.547,146.59 L464.186,146.59 C463.982,146.59 463.903,146.552 463.934,146.344 L464.096,145.336 C464.111,145.227 464.196,145.144 464.385,145.144 C465.232,145.144 466.518,145.254 469.006,145.254 L470.655,145.254 C474.397,145.254 478.145,145.227 481.889,145.227 C482.478,145.227 483.222,145.144 483.387,145.144 C483.572,145.144 483.654,145.227 483.667,145.336 L484.599,151.293 C484.643,151.443 484.591,151.559 484.432,151.614 L483.821,151.919 C483.69,152.002 483.554,151.893 483.543,151.782 C483.501,151.641 481.262,148.138 480.481,147.586 C479.757,147.083 478.768,146.637 477.755,146.59 L471.066,146.439 L469.281,157.271" id="Fill-11" fill="#152338"></path>
        <path d="M497.846,158.272 C498.408,158.383 498.806,158.416 499.51,158.416 C506.395,158.416 508.472,153.794 508.737,152.241 C509.02,150.551 508.487,148.936 507.553,148.032 C506.272,146.874 504.706,146.344 501.55,146.344 C501.095,146.344 500.614,146.405 500.227,146.637 C499.923,146.807 499.659,147.236 499.6,147.818 L497.846,158.272 Z M495.083,154.623 C495.523,151.893 495.902,149.52 496.035,148.432 C496.237,147.236 495.864,146.59 494.936,146.59 L493.404,146.59 C493.218,146.59 493.201,146.487 493.224,146.344 L493.373,145.404 C493.404,145.227 493.482,145.144 493.656,145.144 C493.987,145.144 495.126,145.254 498.319,145.254 C500.426,145.254 503.947,145.144 504.634,145.144 C507.758,145.144 510.085,146.083 511.33,147.406 C512.356,148.571 512.795,150.264 512.57,151.614 C511.813,156.247 509.365,157.978 504.37,159.003 L504.36,159.103 C505.222,159.422 505.611,160.072 505.862,160.483 C506.248,160.976 508.288,164.758 508.495,165.225 C508.629,165.576 510.5,168.953 511.113,169.452 C511.816,170.024 512.674,170.103 513.736,170.103 C514.003,170.103 514.009,170.257 513.993,170.396 L513.853,171.204 C513.815,171.435 513.773,171.524 513.504,171.524 C513.209,171.524 512.238,171.435 510.577,171.435 C509.485,171.435 508.07,171.501 507.484,171.524 C507.158,171.176 506.533,169.911 506.269,169.431 C506.027,168.979 504.581,165.485 504.43,165.197 C504.342,164.934 502.969,162.239 502.611,161.743 C501.805,160.603 501.055,159.601 498.882,159.601 C498.547,159.601 498.159,159.601 497.618,159.716 L497.271,161.772 C496.897,163.957 496.259,168.113 496.231,168.662 C496.15,169.431 496.333,170.103 496.898,170.103 L499.283,170.103 C499.563,170.103 499.584,170.204 499.523,170.396 L499.425,171.204 C499.348,171.466 499.309,171.524 498.931,171.524 C498.506,171.524 497.588,171.435 493.992,171.435 C490.594,171.435 489.7,171.524 489.288,171.524 C488.987,171.524 488.999,171.435 489.017,171.223 L489.171,170.396 C489.187,170.204 489.202,170.103 489.412,170.103 L490.934,170.103 C491.776,170.103 492.469,169.845 492.638,168.841 C493.332,165.197 493.901,161.72 494.476,158.212 L495.083,154.623 Z" id="Fill-12" fill="#152338"></path>
        <path d="M524.817,155.939 C524.953,155.06 525.939,148.402 525.981,147.847 C526.041,146.956 525.735,146.59 524.293,146.59 L522.099,146.59 C521.934,146.59 521.815,146.515 521.839,146.377 L522.028,145.372 C522.046,145.227 522.18,145.144 522.321,145.144 C522.769,145.144 524.67,145.254 528.189,145.254 C531.532,145.254 532.77,145.144 533.288,145.144 C533.496,145.144 533.539,145.254 533.512,145.404 L533.357,146.344 C533.33,146.515 533.207,146.59 533.005,146.59 L531.241,146.59 C530.489,146.59 529.889,146.874 529.76,147.641 C529.702,147.989 528.205,156.148 528.159,156.58 L527.694,159.453 C527.613,159.823 526.308,168.362 526.259,168.761 C526.053,169.911 526.59,170.103 527.796,170.103 L529.342,170.103 C529.52,170.103 529.642,170.164 529.619,170.355 L529.459,171.316 C529.433,171.466 529.319,171.524 529.066,171.524 C528.618,171.524 527.127,171.435 523.844,171.435 C520.286,171.435 518.618,171.524 518.2,171.524 C518.027,171.524 517.91,171.466 517.918,171.316 L518.111,170.316 C518.132,170.164 518.254,170.103 518.445,170.103 L520.575,170.103 C521.318,170.103 522.109,169.993 522.407,169.014 C522.606,168.467 524.018,160.483 524.366,158.531 L524.817,155.939" id="Fill-13" fill="#152338"></path>
        <path d="M543.935,150.052 C544.281,147.878 543.376,146.666 542.028,146.637 L540.475,146.59 C540.295,146.59 540.29,146.439 540.304,146.344 L540.453,145.372 C540.483,145.227 540.529,145.144 540.716,145.144 C540.9,145.144 541.204,145.188 541.771,145.188 C542.327,145.227 543.138,145.254 544.421,145.254 C545.704,145.254 546.53,145.188 546.99,145.188 C547.461,145.188 547.748,145.336 547.987,145.664 L554.247,155.709 C554.563,156.247 559.673,163.894 560.385,165.076 L560.531,165.076 L561.269,160.684 C561.815,157.388 562.086,155.563 562.323,153.735 C562.515,152.29 562.927,148.677 562.803,148.032 C562.662,147.109 562.045,146.59 560.953,146.59 L559.764,146.59 C559.615,146.59 559.521,146.515 559.578,146.344 L559.746,145.372 C559.764,145.227 559.851,145.144 560.003,145.144 C560.508,145.144 561.704,145.254 564.138,145.254 C566.408,145.254 567.309,145.144 567.8,145.144 C568.063,145.144 568.083,145.254 568.061,145.404 L567.903,146.344 C567.878,146.487 567.789,146.59 567.637,146.59 L566.612,146.59 C565.609,146.59 565.129,147.236 564.82,148.611 C564.262,151.121 563.659,154.764 563.248,157.147 L560.953,170.993 C560.893,171.501 560.78,171.865 560.633,171.865 C560.173,171.865 559.904,171.435 559.816,171.283 L556.149,165.576 C554.051,162.363 551.841,158.991 551.653,158.736 C551.317,158.383 545.805,149.842 545.6,149.549 L545.384,149.549 L544.01,157.732 C543.452,161.192 542.769,167.209 542.696,167.969 C542.638,169.412 542.713,170.103 543.776,170.103 L544.876,170.103 C545.134,170.103 545.155,170.204 545.126,170.428 L544.992,171.223 C544.964,171.466 544.923,171.524 544.659,171.524 C544.254,171.524 542.029,171.435 541.018,171.435 C540.214,171.435 537.59,171.524 537.189,171.524 C537.042,171.524 537.032,171.466 537.047,171.283 L537.203,170.316 C537.253,170.204 537.304,170.103 537.48,170.103 L538.774,170.103 C539.878,170.103 540.35,169.674 540.868,167.838 C541.034,167.138 541.809,162.922 542.912,156.355 L543.935,150.052" id="Fill-14" fill="#152338"></path>
        <path d="M592.398,163.245 C592.623,161.914 592.265,161.564 591.124,161.564 L589.541,161.564 C589.358,161.564 589.3,161.481 589.329,161.335 L589.476,160.427 C589.506,160.192 589.544,160.114 589.75,160.114 C590.262,160.114 591.957,160.22 594.522,160.22 C597.253,160.22 598.466,160.114 599.013,160.114 C599.237,160.114 599.294,160.22 599.233,160.36 L599.095,161.265 C599.076,161.415 599.026,161.564 598.791,161.564 L597.315,161.564 C596.616,161.564 596.127,161.803 595.909,162.951 L595.119,167.838 C595.009,168.362 595.126,168.73 595.04,169.016 C595.006,169.307 594.746,169.452 594.366,169.601 C591.063,171.142 587.905,172 583.677,172 C580.315,172 575.892,170.746 573.799,167.752 C571.922,165.225 571.258,162.063 572.032,157.592 C572.556,154.223 574.647,150.642 577.837,148.228 C580.888,145.976 584.505,144.696 589.028,144.696 C592.265,144.696 594.99,145.896 596.12,146.84 C596.454,147.204 596.706,147.109 596.981,146.807 L597.639,146.146 C597.846,145.988 598.015,145.823 598.218,145.823 C598.499,145.823 598.533,145.988 598.499,146.261 L597.434,153.323 C597.415,153.505 597.339,153.652 597.185,153.652 L596.491,153.735 C596.342,153.735 596.274,153.616 596.265,153.445 C596.131,152.38 595.764,150.642 594.704,149.08 C593.809,147.696 591.758,146.048 588.34,146.048 C585.734,146.048 583.28,146.666 580.641,149.036 C578.268,151.141 576.461,154.195 575.895,157.546 C575.182,161.887 575.818,165.694 577.781,167.869 C579.367,169.674 581.526,170.498 583.987,170.498 C587.004,170.498 588.927,169.993 590.368,169.261 C591.346,168.73 591.637,167.897 591.956,165.987 L592.398,163.245" id="Fill-15" fill="#152338"></path>
        <path d="M149.019,38.414 L150.311,38.414 L150.311,53.409 C150.311,58.566 148.023,61.269 144.097,61.269 C140.163,61.269 137.877,58.566 137.877,53.409 L137.877,38.414 L139.169,38.414 L139.169,53.635 C139.169,57.923 141.131,60.046 144.097,60.046 C147.093,60.046 149.019,57.953 149.019,53.635 L149.019,38.414" id="Fill-16" fill="#152338"></path>
        <polyline id="Fill-17" fill="#152338" points="160.609 60.947 160.609 39.636 155.009 39.636 155.009 38.414 167.476 38.414 167.476 39.636 161.904 39.636 161.904 60.947 160.609 60.947"></polyline>
        <polygon id="Fill-18" fill="#152338" points="172.532 60.947 173.817 60.947 173.817 38.414 172.532 38.414"></polygon>
        <polyline id="Fill-19" fill="#152338" points="180.803 60.947 180.803 38.414 182.089 38.414 182.089 59.725 191.398 59.725 191.398 60.947 180.803 60.947"></polyline>
        <polygon id="Fill-20" fill="#152338" points="196.457 60.947 197.743 60.947 197.743 38.414 196.457 38.414"></polygon>
        <polyline id="Fill-21" fill="#152338" points="208.398 60.947 208.398 39.636 202.797 39.636 202.797 38.414 215.254 38.414 215.254 39.636 209.683 39.636 209.683 60.947 208.398 60.947"></polyline>
        <path d="M223.852,60.947 L223.852,54.092 L218.061,38.414 L219.408,38.414 L223.592,49.868 C224.048,51.162 224.461,52.831 224.461,52.831 L224.535,52.831 C224.535,52.831 224.917,51.162 225.404,49.868 L229.555,38.414 L230.935,38.414 L225.146,54.092 L225.146,60.947 L223.852,60.947" id="Fill-22" fill="#152338"></path>
        <polygon id="Fill-23" fill="#152338" points="0 94.55 1.288 94.55 1.288 72.008 0 72.008"></polygon>
        <path d="M20.32,94.55 L10.721,77.165 C10.017,75.841 9.5,74.616 9.5,74.616 L9.436,74.616 C9.436,74.616 9.563,76.005 9.563,77.549 L9.563,94.55 L8.277,94.55 L8.277,72.008 L9.406,72.008 L18.963,89.425 C19.512,90.432 20.217,92.002 20.217,92.002 L20.289,92.002 C20.289,92.002 20.187,90.171 20.187,89.106 L20.187,72.008 L21.481,72.008 L21.481,94.55 L20.32,94.55" id="Fill-24" fill="#152338"></path>
        <polyline id="Fill-25" fill="#152338" points="28.464 94.55 28.464 72.008 39.054 72.008 39.054 73.23 29.755 73.23 29.755 84.343 37.773 84.343 37.773 85.563 29.755 85.563 29.755 94.55 28.464 94.55"></polyline>
        <path d="M49.85,85.727 C53.839,85.727 55.774,83.348 55.774,79.484 C55.774,75.618 53.839,73.23 49.85,73.23 L46.048,73.23 L46.048,85.727 L49.85,85.727 Z M55.38,94.55 L51.683,86.785 C51.135,86.92 50.492,86.952 49.85,86.952 L46.048,86.952 L46.048,94.55 L44.755,94.55 L44.755,72.008 L49.85,72.008 C54.77,72.008 57.059,75.003 57.059,79.484 C57.059,82.892 55.703,85.471 52.906,86.465 L56.83,94.55 L55.38,94.55 Z" id="Fill-26" fill="#152338"></path>
        <path d="M69.618,77.102 C69.291,75.942 68.935,74.526 68.935,74.526 L68.873,74.526 C68.873,74.526 68.521,75.942 68.197,77.102 L65.3,87.211 L72.507,87.211 L69.618,77.102 Z M74.64,94.55 L72.87,88.433 L64.949,88.433 L63.176,94.55 L61.821,94.55 L68.42,72.008 L69.391,72.008 L75.988,94.55 L74.64,94.55 Z" id="Fill-27" fill="#152338"></path>
        <path d="M80.368,90.107 C81.396,92.264 83.491,93.65 86.128,93.65 C89.607,93.65 91.058,91.302 91.058,89.042 C91.058,85.988 88.415,84.762 85.875,83.637 C83.041,82.344 79.988,80.893 79.988,77.259 C79.988,74.138 82.234,71.688 86.066,71.688 C89.16,71.688 91.088,73.271 92.052,75.747 L90.901,76.297 C90.249,74.587 88.706,72.91 86.004,72.91 C83.104,72.91 81.272,74.814 81.272,77.227 C81.272,80.126 83.974,81.379 86.295,82.413 C89.42,83.794 92.34,85.273 92.34,88.95 C92.34,92.131 90.249,94.904 86.128,94.872 C82.948,94.841 80.339,93.164 79.242,90.783 L80.368,90.107" id="Fill-28" fill="#152338"></path>
        <polyline id="Fill-29" fill="#152338" points="100.814 94.55 100.814 73.23 95.213 73.23 95.213 72.008 107.672 72.008 107.672 73.23 102.099 73.23 102.099 94.55 100.814 94.55"></polyline>
        <path d="M117.822,85.727 C121.81,85.727 123.745,83.348 123.745,79.484 C123.745,75.618 121.81,73.23 117.822,73.23 L114.02,73.23 L114.02,85.727 L117.822,85.727 Z M123.352,94.55 L119.655,86.785 C119.106,86.92 118.463,86.952 117.822,86.952 L114.02,86.952 L114.02,94.55 L112.727,94.55 L112.727,72.008 L117.822,72.008 C122.742,72.008 125.029,75.003 125.029,79.484 C125.029,82.892 123.674,85.471 120.877,86.465 L124.805,94.55 L123.352,94.55 Z" id="Fill-30" fill="#152338"></path>
        <path d="M142.035,72.008 L143.32,72.008 L143.32,87.014 C143.32,92.169 141.034,94.872 137.108,94.872 C133.184,94.872 130.892,92.169 130.892,87.014 L130.892,72.008 L132.178,72.008 L132.178,87.242 C132.178,91.518 134.148,93.65 137.108,93.65 C140.101,93.65 142.035,91.55 142.035,87.242 L142.035,72.008" id="Fill-31" fill="#152338"></path>
        <path d="M162.125,89.715 C161.064,92.873 159.066,94.872 155.91,94.872 C150.926,94.872 148.834,89.913 148.834,83.276 C148.834,76.647 150.926,71.688 155.91,71.688 C159.16,71.688 161.188,73.81 162.221,77.133 L161.032,77.517 C160.163,74.616 158.516,72.879 155.91,72.879 C151.857,72.879 150.117,77.165 150.117,83.276 C150.117,89.393 151.857,93.681 155.91,93.681 C158.423,93.681 160.069,92.034 160.932,89.362 L162.125,89.715" id="Fill-32" fill="#152338"></path>
        <polyline id="Fill-33" fill="#152338" points="171.206 94.55 171.206 73.23 165.604 73.23 165.604 72.008 178.059 72.008 178.059 73.23 172.498 73.23 172.498 94.55 171.206 94.55"></polyline>
        <path d="M193.907,72.008 L195.192,72.008 L195.192,87.014 C195.192,92.169 192.912,94.872 188.979,94.872 C185.052,94.872 182.764,92.169 182.764,87.014 L182.764,72.008 L184.059,72.008 L184.059,87.242 C184.059,91.518 186.016,93.65 188.979,93.65 C191.978,93.65 193.907,91.55 193.907,87.242 L193.907,72.008" id="Fill-34" fill="#152338"></path>
        <path d="M206.918,85.727 C210.915,85.727 212.842,83.348 212.842,79.484 C212.842,75.618 210.915,73.23 206.918,73.23 L203.117,73.23 L203.117,85.727 L206.918,85.727 Z M212.458,94.55 L208.751,86.785 C208.203,86.92 207.559,86.952 206.918,86.952 L203.117,86.952 L203.117,94.55 L201.831,94.55 L201.831,72.008 L206.918,72.008 C211.847,72.008 214.126,75.003 214.126,79.484 C214.126,82.892 212.778,85.471 209.972,86.465 L213.908,94.55 L212.458,94.55 Z" id="Fill-35" fill="#152338"></path>
        <polyline id="Fill-36" fill="#152338" points="220.349 94.55 220.349 72.008 230.935 72.008 230.935 73.23 221.634 73.23 221.634 83.731 229.651 83.731 229.651 84.954 221.634 84.954 221.634 93.32 230.935 93.32 230.935 94.55 220.349 94.55"></polyline>
        <path d="M85.424,123.705 C86.456,125.864 88.552,127.245 91.187,127.245 C94.663,127.245 96.113,124.895 96.113,122.645 C96.113,119.584 93.473,118.361 90.934,117.232 C88.098,115.947 85.043,114.497 85.043,110.862 C85.043,107.735 87.289,105.291 91.121,105.291 C94.217,105.291 96.144,106.867 97.115,109.351 L95.954,109.894 C95.305,108.191 93.763,106.512 91.06,106.512 C88.161,106.512 86.327,108.415 86.327,110.832 C86.327,113.722 89.03,114.982 91.349,116.011 C94.476,117.396 97.406,118.878 97.406,122.541 C97.406,125.732 95.305,128.501 91.187,128.466 C88.003,128.435 85.395,126.766 84.296,124.38 L85.424,123.705" id="Fill-37" fill="#152338"></path>
        <path d="M114.822,116.88 C114.822,110.762 113.048,106.482 108.998,106.482 C104.939,106.482 103.199,110.762 103.199,116.88 C103.199,122.998 104.939,127.275 108.998,127.275 C113.048,127.275 114.822,122.998 114.822,116.88 Z M101.914,116.88 C101.914,110.253 104.008,105.291 108.998,105.291 C113.988,105.291 116.112,110.253 116.112,116.88 C116.112,123.514 113.988,128.466 108.998,128.466 C104.008,128.466 101.914,123.514 101.914,116.88 Z" id="Fill-38" fill="#152338"></path>
        <polyline id="Fill-39" fill="#152338" points="121.975 128.146 121.975 105.613 123.26 105.613 123.26 126.921 132.561 126.921 132.561 128.146 121.975 128.146"></polyline>
        <path d="M148.406,105.613 L149.693,105.613 L149.693,120.617 C149.693,125.765 147.411,128.466 143.477,128.466 C139.551,128.466 137.264,125.765 137.264,120.617 L137.264,105.613 L138.559,105.613 L138.559,120.841 C138.559,125.121 140.516,127.245 143.477,127.245 C146.482,127.245 148.406,125.152 148.406,120.841 L148.406,105.613" id="Fill-40" fill="#152338"></path>
        <polyline id="Fill-41" fill="#152338" points="159.998 128.146 159.998 106.835 154.396 106.835 154.396 105.613 166.863 105.613 166.863 106.835 161.292 106.835 161.292 128.146 159.998 128.146"></polyline>
        <polygon id="Fill-42" fill="#152338" points="171.918 128.146 173.204 128.146 173.204 105.613 171.918 105.613"></polygon>
        <path d="M191.978,116.88 C191.978,110.762 190.21,106.482 186.151,106.482 C182.089,106.482 180.35,110.762 180.35,116.88 C180.35,122.998 182.089,127.275 186.151,127.275 C190.21,127.275 191.978,122.998 191.978,116.88 Z M179.068,116.88 C179.068,110.253 181.159,105.291 186.151,105.291 C191.139,105.291 193.264,110.253 193.264,116.88 C193.264,123.514 191.139,128.466 186.151,128.466 C181.159,128.466 179.068,123.514 179.068,116.88 Z" id="Fill-43" fill="#152338"></path>
        <path d="M211.162,128.146 L201.574,110.762 C200.869,109.443 200.351,108.222 200.351,108.222 L200.288,108.222 C200.288,108.222 200.414,109.605 200.414,111.152 L200.414,128.146 L199.127,128.146 L199.127,105.613 L200.256,105.613 L209.815,123.031 C210.362,124.024 211.068,125.608 211.068,125.608 L211.13,125.608 C211.13,125.608 211.037,123.765 211.037,122.711 L211.037,105.613 L212.321,105.613 L212.321,128.146 L211.162,128.146" id="Fill-44" fill="#152338"></path>
        <path d="M218.963,123.705 C219.989,125.864 222.08,127.245 224.72,127.245 C228.201,127.245 229.649,124.895 229.649,122.645 C229.649,119.584 227.01,118.361 224.463,117.232 C221.634,115.947 218.577,114.497 218.577,110.862 C218.577,107.735 220.827,105.291 224.661,105.291 C227.751,105.291 229.682,106.867 230.644,109.351 L229.485,109.894 C228.844,108.191 227.301,106.512 224.596,106.512 C221.697,106.512 219.863,108.415 219.863,110.832 C219.863,113.722 222.567,114.982 224.886,116.011 C228.003,117.396 230.935,118.878 230.935,122.541 C230.935,125.732 228.844,128.501 224.72,128.466 C221.541,128.435 218.933,126.766 217.834,124.38 L218.963,123.705" id="Fill-45" fill="#152338"></path>
    </g>
</svg>
